<?xml version="1.0" encoding="utf-8"?>
<!-- Generator: Adobe Illustrator 28.1.0, SVG Export Plug-In . SVG Version: 6.00 Build 0)  -->
<svg version="1.1" id="Capa_1" xmlns="http://www.w3.org/2000/svg" xmlns:xlink="http://www.w3.org/1999/xlink" x="0px" y="0px"
	 viewBox="0 0 512 512" style="enable-background:new 0 0 512 512;" xml:space="preserve">
<style type="text/css">
	.st0{fill-rule:evenodd;clip-rule:evenodd;fill:#FFFFFF;}
</style>
<g>
	<g>
		<path class="st0" d="M256,486.4c127.2,0,230.4-103.2,230.4-230.4c0-127.2-103.2-230.4-230.4-230.4C128.8,25.6,25.6,128.8,25.6,256
			S128.8,486.4,256,486.4z M256,512c141.4,0,256-114.6,256-256C512,114.6,397.4,0,256,0C114.6,0,0,114.6,0,256
			C0,397.4,114.6,512,256,512z"/>
	</g>
	<g>
		<path class="st0" d="M322.5,256l-117.7-78.5v157L322.5,256z M346.3,241.1c10.6,7.1,10.6,22.7,0,29.8l-139.2,92.8
			c-11.9,7.9-27.9-0.6-27.9-14.9V163.2c0-14.3,16-22.8,27.9-14.9L346.3,241.1z"/>
	</g>
</g>
</svg>
