<svg width="30" height="27" viewBox="0 0 30 27" fill="none" xmlns="http://www.w3.org/2000/svg">
<path d="M23.8001 26.4444C23.5691 26.4444 23.3398 26.3761 23.143 26.2427L15.7094 21.2003L11.7224 24.0691C11.4097 24.294 11.0067 24.3506 10.6436 24.2208C10.281 24.0907 10.0056 23.7903 9.90726 23.4179L7.90534 15.8312L0.752268 13.096C0.301953 12.9238 0.00330395 12.493 2.72291e-05 12.0108C-0.00324949 11.5287 0.289471 11.0938 0.7376 10.9155L27.9362 0.0929383C28.0596 0.0405108 28.1902 0.0102401 28.3219 0.00212634C28.3691 -0.000682275 28.4163 -0.000682189 28.4633 0.00197039C28.736 0.0181979 29.004 0.129294 29.213 0.334323C29.2347 0.355544 29.2553 0.377232 29.2748 0.399857C29.448 0.597709 29.5432 0.838937 29.5612 1.08469C29.5655 1.14648 29.5652 1.20905 29.5597 1.27162C29.556 1.31625 29.5496 1.36072 29.5406 1.40487L24.9496 25.4933C24.8758 25.8802 24.6124 26.2042 24.2485 26.355C24.1042 26.415 23.9517 26.4444 23.8001 26.4444ZM16.3621 18.8148L22.9837 23.3063L26.5559 4.56285L13.6539 16.9779L16.3309 18.7938C16.3416 18.8005 16.3519 18.8077 16.3621 18.8148ZM10.8499 17.8161L11.7364 21.1755L13.6466 19.801L11.1454 18.1043C11.0291 18.0256 10.9296 17.9276 10.8499 17.8161ZM4.3902 11.981L9.30184 13.8589C9.6537 13.9934 9.91927 14.2892 10.0154 14.6534L10.6383 17.0141C10.6668 16.7418 10.7903 16.4856 10.9908 16.2926L23.2845 4.46299L4.3902 11.981Z" fill="white"/>
</svg>
