<svg width="34" height="22" viewBox="0 0 34 22" fill="none" xmlns="http://www.w3.org/2000/svg">
<path d="M17.2052 22C22.1238 22 20.37 18.7763 20.7497 17.8493C20.744 17.1571 20.7384 16.4912 20.761 16.0864C21.0727 16.1773 21.8079 16.5631 23.3266 18.0913C25.6711 20.5407 26.2704 22 28.1644 22H31.6508C32.7558 22 33.331 21.5263 33.6185 21.1288C33.8962 20.7445 34.1682 20.0699 33.8707 19.0197C33.093 16.4912 28.5569 12.1249 28.2749 11.6644C28.3174 11.5793 28.3854 11.4664 28.4209 11.4077H28.418C29.3133 10.1831 32.7303 4.88253 33.2332 2.76173C33.2346 2.7588 33.2361 2.7544 33.2361 2.75C33.508 1.782 33.2587 1.15427 33.0009 0.799333C32.6127 0.2684 31.9951 0 31.1607 0H27.6743C26.507 0 25.6216 0.608666 25.1739 1.71893C24.4245 3.6916 22.3193 7.7484 20.7412 9.18427C20.693 7.15 20.7256 5.5968 20.7511 4.44253C20.8021 2.1912 20.9664 0 18.7097 0H13.2301C11.8163 0 10.4634 1.59867 11.9282 3.49653C13.2089 5.15973 12.3886 6.08667 12.6649 10.7008C11.5882 9.50547 9.67289 6.27733 8.31858 2.1516C7.93891 1.03547 7.36375 0.00146656 5.74452 0.00146656H2.25814C0.844324 0.00146656 0 0.799333 0 2.13547C0 5.13627 6.41601 22 17.2052 22ZM5.74452 2.20147C6.05193 2.20147 6.0831 2.20147 6.31118 2.87173C7.69808 7.10013 10.809 13.3569 13.0814 13.3569C14.7884 13.3569 14.7884 11.5456 14.7884 10.8636L14.787 5.434C14.6935 3.63733 14.0617 2.74267 13.6466 2.2L18.6162 2.20587C18.619 2.2308 18.5879 8.21187 18.6304 9.66093C18.6304 11.7187 20.2085 12.8979 22.6721 10.3165C25.2716 7.27907 27.0694 2.73827 27.1416 2.55347C27.2479 2.28947 27.34 2.2 27.6743 2.2H31.1607H31.1748C31.1734 2.2044 31.1734 2.2088 31.172 2.2132C30.8532 3.7532 27.7069 8.66067 26.6543 10.1845C26.6373 10.208 26.6217 10.2329 26.6061 10.2579C26.1429 11.0411 25.7661 11.9064 26.6699 13.1237C26.752 13.2264 26.9674 13.4669 27.279 13.8013C28.248 14.8368 31.5715 18.3773 31.8661 19.7853C31.6707 19.8176 31.4582 19.7941 28.1644 19.8015C27.4632 19.8015 26.915 18.7161 24.8226 16.5308C22.9412 14.6359 21.7201 13.8615 20.608 13.8615C18.449 13.8615 18.6063 15.6757 18.6261 17.8699C18.6332 20.2488 18.619 19.4964 18.6346 19.646C18.5085 19.6973 18.1473 19.8 17.2052 19.8C8.21658 19.8 2.36297 5.0292 2.13773 2.20587C2.21564 2.19853 3.28805 2.20293 5.74452 2.20147Z" fill="white"/>
</svg>
