<svg width="30" height="32" viewBox="0 0 30 32" fill="none" xmlns="http://www.w3.org/2000/svg">
<g clip-path="url(#clip0_242_70)">
<path fill-rule="evenodd" clip-rule="evenodd" d="M15.0595 31.8523H14.9405C8.98339 31.8523 5.50048 31.2171 3.07507 28.6952C0.575675 25.9954 0 22.3274 0 16.0381V15.8602C0 9.57082 0.575675 5.87794 3.07507 3.20301C5.52394 0.683062 8.98339 0.0458984 14.9386 0.0458984H15.0595C20.9913 0.0458984 24.4742 0.683062 26.925 3.20301C29.4244 5.90281 30 9.57082 30 15.8602V16.0381C30 22.3293 29.4226 26.0222 26.925 28.6952C24.4742 31.2152 21.0166 31.8523 15.0595 31.8523ZM26.3566 15.4769C26.4723 15.4827 26.5663 15.5842 26.5663 15.7068H26.5645V16.2202C26.5645 16.3447 26.4705 16.4462 26.3548 16.4501C22.2051 16.6167 19.6811 17.176 17.9123 19.0514C16.1454 20.9248 15.6179 23.5971 15.4589 27.9895C15.4535 28.112 15.3577 28.2116 15.2421 28.2116H14.7561C14.6387 28.2116 14.5429 28.112 14.5393 27.9895C14.3803 23.5971 13.8528 20.9248 12.0858 19.0514C10.3189 17.178 7.79322 16.6167 3.6433 16.4501C3.52767 16.4443 3.43373 16.3428 3.43373 16.2202V15.7068C3.43373 15.5823 3.52767 15.4808 3.6433 15.4769C7.79322 15.3103 10.3171 14.7509 12.0858 12.8756C13.8564 10.9983 14.3839 8.31655 14.5411 3.90883C14.5465 3.78623 14.6423 3.68661 14.7579 3.68661H15.2421C15.3595 3.68661 15.4553 3.78623 15.4589 3.90883C15.6161 8.31847 16.1436 10.9983 17.9142 12.8756C19.6811 14.749 22.2069 15.3103 26.3566 15.4769Z" fill="white"/>
</g>
<defs>
<clipPath id="clip0_242_70">
<rect width="30" height="32" fill="white"/>
</clipPath>
</defs>
</svg>
